<svg width="64" height="64" viewBox="0 0 64 64" fill="none" xmlns="http://www.w3.org/2000/svg">
<g clip-path="url(#clip0_257_318)">
<path d="M4.56836 39.227C4.56836 39.227 6.17798 37.923 7.47037 36.877C7.89006 36.536 8.46158 36.344 9.05655 36.344C9.65152 36.344 10.223 36.536 10.644 36.877C11.0698 37.222 11.5315 37.596 11.9586 37.942C12.3795 38.283 12.9498 38.474 13.546 38.474C14.1409 38.474 14.7112 38.283 15.1321 37.942C15.5592 37.596 16.0209 37.222 16.4468 36.877C16.8677 36.536 17.4392 36.344 18.0342 36.344C18.6291 36.344 19.2006 36.536 19.6216 36.877C20.0474 37.222 20.5091 37.596 20.9362 37.942C21.3571 38.283 21.9274 38.474 22.5223 38.474C23.1173 38.474 23.6888 38.283 24.1098 37.942C24.5368 37.596 24.9973 37.222 25.4244 36.877C25.8453 36.536 26.4156 36.344 27.0118 36.344C27.6067 36.344 28.177 36.536 28.5979 36.877C29.025 37.222 29.4867 37.596 29.9125 37.942C30.3335 38.283 30.905 38.474 31.5 38.474C32.0949 38.474 32.6664 38.283 33.0874 37.942C33.5132 37.596 33.9749 37.222 34.402 36.877C34.8229 36.536 35.3932 36.344 35.9881 36.344" stroke="#FF782D" stroke-width="3" stroke-miterlimit="2" stroke-linecap="round" stroke-linejoin="round"/>
<path d="M49.7725 39.227C49.7725 39.227 53.3484 36.344 53.9434 36.344C54.5384 36.344 55.1099 36.536 55.5296 36.877C56.822 37.923 58.4316 39.227 58.4316 39.227" stroke="#FF782D" stroke-width="3" stroke-miterlimit="2" stroke-linecap="round" stroke-linejoin="round"/>
<path d="M8 43H55.1309" stroke="#FF782D" stroke-width="3" stroke-miterlimit="2" stroke-linecap="round" stroke-linejoin="round"/>
<path fill-rule="evenodd" clip-rule="evenodd" d="M31.5 31.045L39.7666 39.227L48.0332 31.045" fill="#358A18"/>
<path d="M31.5 31.045L39.7666 39.227L48.0332 31.045" stroke="#358A18" stroke-width="3" stroke-miterlimit="2" stroke-linecap="round" stroke-linejoin="round"/>
<path d="M8 31H55.1309" stroke="#FF782D" stroke-width="3" stroke-miterlimit="2" stroke-linecap="round" stroke-linejoin="round"/>
<path fill-rule="evenodd" clip-rule="evenodd" d="M57.6191 50.75C57.6191 48.679 55.5466 47 52.9902 47C43.188 47 20.4311 47 10.6289 47C8.07252 47 6 48.679 6 50.75C6 52.821 8.07252 54.5 10.6289 54.5C20.4311 54.5 43.188 54.5 52.9902 54.5C55.5466 54.5 57.6191 52.821 57.6191 50.75Z" stroke="#FF782D" stroke-width="3" stroke-miterlimit="2" stroke-linecap="round" stroke-linejoin="round"/>
<path fill-rule="evenodd" clip-rule="evenodd" d="M56.375 24.89C56.375 15.286 46.7642 7.5 34.9092 7.5C32.7725 7.5 30.6025 7.5 28.4658 7.5C16.6108 7.5 7 15.286 7 24.89V24.891C7 26.081 8.18994 27.045 9.65884 27.045C18.239 27.045 45.136 27.045 53.7162 27.045C55.1851 27.045 56.375 26.081 56.375 24.891V24.89Z" stroke="#FF782D" stroke-width="3" stroke-miterlimit="2" stroke-linecap="round" stroke-linejoin="round"/>
<path d="M15 23C15.5523 23 16 22.5523 16 22C16 21.4477 15.5523 21 15 21C14.4477 21 14 21.4477 14 22C14 22.5523 14.4477 23 15 23Z" fill="#FF782D"/>
<path d="M28 15C28.5523 15 29 14.5523 29 14C29 13.4477 28.5523 13 28 13C27.4477 13 27 13.4477 27 14C27 14.5523 27.4477 15 28 15Z" fill="#FF782D"/>
<path d="M24 21C24.5523 21 25 20.5523 25 20C25 19.4477 24.5523 19 24 19C23.4477 19 23 19.4477 23 20C23 20.5523 23.4477 21 24 21Z" fill="#FF782D"/>
<path d="M41 15C41.5523 15 42 14.5523 42 14C42 13.4477 41.5523 13 41 13C40.4477 13 40 13.4477 40 14C40 14.5523 40.4477 15 41 15Z" fill="#FF782D"/>
<path d="M39 21C39.5523 21 40 20.5523 40 20C40 19.4477 39.5523 19 39 19C38.4477 19 38 19.4477 38 20C38 20.5523 38.4477 21 39 21Z" fill="#FF782D"/>
<path d="M32.5 21C32.7761 21 33 20.7761 33 20.5C33 20.2239 32.7761 20 32.5 20C32.2239 20 32 20.2239 32 20.5C32 20.7761 32.2239 21 32.5 21Z" fill="#FF782D"/>
<path d="M47.5 19C47.7761 19 48 18.7761 48 18.5C48 18.2239 47.7761 18 47.5 18C47.2239 18 47 18.2239 47 18.5C47 18.7761 47.2239 19 47.5 19Z" fill="#FF782D"/>
<path d="M46.5 23C46.7761 23 47 22.7761 47 22.5C47 22.2239 46.7761 22 46.5 22C46.2239 22 46 22.2239 46 22.5C46 22.7761 46.2239 23 46.5 23Z" fill="#FF782D"/>
<path d="M16.5 17C16.7761 17 17 16.7761 17 16.5C17 16.2239 16.7761 16 16.5 16C16.2239 16 16 16.2239 16 16.5C16 16.7761 16.2239 17 16.5 17Z" fill="#FF782D"/>
</g>
<defs>
<clipPath id="clip0_257_318">
<rect width="64" height="64" fill="white"/>
</clipPath>
</defs>
</svg>
