<svg width="138" height="138" viewBox="0 0 138 138" fill="none" xmlns="http://www.w3.org/2000/svg">
<rect width="138" height="138" fill="#FF782D"/>
<path d="M44 57C44 57 45.4857 55.6431 46.6785 54.5546C47.0659 54.1998 47.5934 54 48.1425 54C48.6917 54 49.2192 54.1998 49.6077 54.5546C50.0007 54.9136 50.4268 55.3028 50.821 55.6629C51.2096 56.0177 51.7359 56.2164 52.2862 56.2164C52.8353 56.2164 53.3617 56.0177 53.7502 55.6629C54.1444 55.3028 54.5705 54.9136 54.9636 54.5546C55.3521 54.1998 55.8796 54 56.4287 54C56.9779 54 57.5054 54.1998 57.8939 54.5546C58.2869 54.9136 58.713 55.3028 59.1072 55.6629C59.4958 56.0177 60.0221 56.2164 60.5713 56.2164C61.1204 56.2164 61.6479 56.0177 62.0364 55.6629C62.4306 55.3028 62.8556 54.9136 63.2498 54.5546C63.6383 54.1998 64.1646 54 64.7149 54C65.2641 54 65.7904 54.1998 66.1789 54.5546C66.5731 54.9136 66.9993 55.3028 67.3923 55.6629C67.7808 56.0177 68.3083 56.2164 68.8575 56.2164C69.4066 56.2164 69.9341 56.0177 70.3226 55.6629C70.7157 55.3028 71.1418 54.9136 71.536 54.5546C71.9245 54.1998 72.4509 54 73 54" stroke="white" stroke-width="2" stroke-miterlimit="2" stroke-linecap="round" stroke-linejoin="round"/>
<path d="M86 57C86 57 89.3038 54 89.8535 54C90.4031 54 90.9311 54.1998 91.3189 54.5546C92.5129 55.6431 94 57 94 57" stroke="white" stroke-width="2" stroke-miterlimit="2" stroke-linecap="round" stroke-linejoin="round"/>
<path d="M47 60H91" stroke="white" stroke-width="2" stroke-miterlimit="2" stroke-linecap="round" stroke-linejoin="round"/>
<path fill-rule="evenodd" clip-rule="evenodd" d="M69 49L77 57L85 49" fill="#358A18"/>
<path d="M69 49L77 57L85 49" stroke="#358A18" stroke-width="2" stroke-miterlimit="2" stroke-linecap="round" stroke-linejoin="round"/>
<path d="M47 49H91" stroke="white" stroke-width="2" stroke-miterlimit="2" stroke-linecap="round" stroke-linejoin="round"/>
<path fill-rule="evenodd" clip-rule="evenodd" d="M94 67.5C94 65.5671 92.0326 64 89.606 64C80.3011 64 58.6989 64 49.394 64C46.9674 64 45 65.5671 45 67.5C45 69.4329 46.9674 71 49.394 71C58.6989 71 80.3011 71 89.606 71C92.0326 71 94 69.4329 94 67.5Z" stroke="white" stroke-width="2" stroke-miterlimit="2" stroke-linecap="round" stroke-linejoin="round"/>
<path fill-rule="evenodd" clip-rule="evenodd" d="M92 43.0153C92 34.1705 83.0461 27 72.0015 27C70.0109 27 67.9891 27 65.9985 27C54.9539 27 46 34.1705 46 43.0153V43.0163C46 44.1122 47.1086 45 48.4771 45C56.4708 45 81.5292 45 89.5229 45C90.8914 45 92 44.1122 92 43.0163V43.0153Z" stroke="white" stroke-width="2" stroke-miterlimit="2" stroke-linecap="round" stroke-linejoin="round"/>
<path d="M53.5 42C53.7761 42 54 41.5523 54 41C54 40.4477 53.7761 40 53.5 40C53.2239 40 53 40.4477 53 41C53 41.5523 53.2239 42 53.5 42Z" fill="white"/>
<path d="M66 34C66.5523 34 67 33.5523 67 33C67 32.4477 66.5523 32 66 32C65.4477 32 65 32.4477 65 33C65 33.5523 65.4477 34 66 34Z" fill="white"/>
<path d="M62 40C62.5523 40 63 39.5523 63 39C63 38.4477 62.5523 38 62 38C61.4477 38 61 38.4477 61 39C61 39.5523 61.4477 40 62 40Z" fill="white"/>
<path d="M78 34C78.5523 34 79 33.5523 79 33C79 32.4477 78.5523 32 78 32C77.4477 32 77 32.4477 77 33C77 33.5523 77.4477 34 78 34Z" fill="white"/>
<path d="M76 40C76.5523 40 77 39.5523 77 39C77 38.4477 76.5523 38 76 38C75.4477 38 75 38.4477 75 39C75 39.5523 75.4477 40 76 40Z" fill="white"/>
<path d="M69.5 40C69.7761 40 70 39.7761 70 39.5C70 39.2239 69.7761 39 69.5 39C69.2239 39 69 39.2239 69 39.5C69 39.7761 69.2239 40 69.5 40Z" fill="white"/>
<path d="M83.5 42C83.7761 42 84 41.7761 84 41.5C84 41.2239 83.7761 41 83.5 41C83.2239 41 83 41.2239 83 41.5C83 41.7761 83.2239 42 83.5 42Z" fill="white"/>
<path d="M54.5 36C54.7761 36 55 35.7761 55 35.5C55 35.2239 54.7761 35 54.5 35C54.2239 35 54 35.2239 54 35.5C54 35.7761 54.2239 36 54.5 36Z" fill="white"/>
<path d="M68.52 91.92H56.488L56.168 92.784H67.464V98.352H65.8C64.2 98.352 62.9627 98.48 62.088 98.736C61.2133 98.9707 60.5307 99.3227 60.04 99.792C59.5493 100.261 59.0053 100.976 58.408 101.936C58.1307 102.384 57.992 102.747 57.992 103.024C57.992 103.387 58.28 103.568 58.856 103.568H60.904C61.224 103.568 61.4373 103.376 61.544 102.992C61.672 102.587 61.736 101.947 61.736 101.072C61.736 100.219 61.7253 99.536 61.704 99.024C62.8133 99.5573 63.9973 100.027 65.256 100.432C66.5147 100.816 67.592 101.083 68.488 101.232C68.488 104.283 68.424 106.32 68.296 107.344C68.168 108.368 67.8693 109.019 67.4 109.296C66.9307 109.552 65.9707 109.701 64.52 109.744C62.6427 109.808 60.776 109.84 58.92 109.84C58.024 109.84 56.7013 109.819 54.952 109.776C53.4373 109.712 52.3813 109.445 51.784 108.976C51.208 108.507 50.92 107.845 50.92 106.992C50.92 106.693 50.9307 106.469 50.952 106.32C51.144 104.763 51.528 103.333 52.104 102.032C52.68 100.731 53.416 99.6107 54.312 98.672H52.968C52.5413 99.2907 51.976 100.005 51.272 100.816C50.8667 98.4693 50.4933 96.624 50.152 95.28V108.656H43.784V109.296H38.344V86.16H50.152V91.376C51.048 89.84 51.5067 87.8987 51.528 85.552L57.992 85.616L57.896 86.48H68.52V91.92ZM43.784 92.016V102.288H44.904V92.016H43.784ZM88.84 105.232V105.84H100.2V109.712H69.8V105.84H81.16V105.232H71.432V102H81.16V101.456L80.584 101.584C79.9867 100.219 79.1867 98.8107 78.184 97.36V101.36H71.4V96.912C70.9733 97.0187 70.6107 97.104 70.312 97.168C70.2907 96.9973 70.2267 96.4853 70.12 95.632C70.0347 94.7787 69.864 93.9573 69.608 93.168C69.352 92.3787 69.032 91.6747 68.648 91.056C70.2693 91.056 71.304 90.7893 71.752 90.256C71.944 90.0213 72.04 89.4453 72.04 88.528C72.04 87.76 71.976 86.8533 71.848 85.808L79.176 85.84C79.0907 87.4187 78.984 88.6667 78.856 89.584C78.7493 90.5013 78.5253 91.344 78.184 92.112V96.976C81.96 96.9333 84.776 96.8267 86.632 96.656V96.208H79.336V93.136H86.632V92.56H79.944V86.032H99.656V92.56H93V93.136H100.328V96.208H93V96.688C94.7067 96.88 97.352 97.104 100.936 97.36C100.019 98.512 99.1333 99.92 98.28 101.584C96.104 100.944 94.344 100.368 93 99.856V101.424H88.84V102H98.568V105.232H88.84ZM92.904 89.296H86.728V89.968H92.904V89.296ZM86.632 99.856C85.7147 100.219 84.296 100.645 82.376 101.136H86.632V99.856Z" fill="white"/>
</svg>
